:version 1.10
:name ASF
:units
  mass 1
  length 1
  angle deg
:documentation
  ASF file generated by Kaydara
:root
  axis xyz
  order  tx ty tz rx ry rz
  position 0 0 0
  orientation 0 0 0
:bonedata
  begin
    id 1
    name lfemurDummy
    direction 0.61522 -0.761478 0.204097
    length 5.68318
    axis 0 -0 0 xyz
  end
  begin
    id 2
    name lfemur
    direction 0.34202 -0.939693 -5.84747e-008
    length 16.9147
    axis 0 -0 20 xyz
    dof rx ry rz
    limits( -inf , inf )
( -inf , inf )
( -inf , inf )

  end
  begin
    id 3
    name ltibia
    direction 0.34202 -0.939693 1.20839e-009
    length 18.0532
    axis 0 -0 20 xyz
    dof rz ry rx
    limits( -inf , inf )
( -inf , inf )
( -inf , inf )

  end
  begin
    id 4
    name lfoot
    direction 0.0841971 -0.23133 0.969225
    length 5.23822
    axis -90 7.62852e-016 20 xyz
    dof ry rx rz
    limits( -inf , inf )
( -inf , inf )
( -inf , inf )

  end
  begin
    id 5
    name ltoes
    direction 0 0 0
    length 0
    axis 0 0 0 xyz
    dof rz ry rx
    limits( -inf , inf )
( -inf , inf )
( -inf , inf )

  end
  begin
    id 6
    name rfemurDummy
    direction -0.625247 -0.75382 0.202044
    length 5.74091
    axis 0 -0 0 xyz
  end
  begin
    id 7
    name rfemur
    direction -0.34202 -0.939693 -1.47013e-008
    length 16.4922
    axis 0 -0 -20 xyz
    dof rx ry rz
    limits( -inf , inf )
( -inf , inf )
( -inf , inf )

  end
  begin
    id 8
    name rtibia
    direction -0.34202 -0.939693 -7.74345e-010
    length 18.2421
    axis 0 -0 -20 xyz
    dof rz ry rx
    limits( -inf , inf )
( -inf , inf )
( -inf , inf )

  end
  begin
    id 9
    name rfoot
    direction -0.124331 -0.341598 0.931586
    length 5.45787
    axis -90 -7.62852e-016 -20 xyz
    dof ry rx rz
    limits( -inf , inf )
( -inf , inf )
( -inf , inf )

  end
  begin
    id 10
    name rtoes
    direction 0 0 0
    length 0
    axis 0 0 0 xyz
    dof rz ry rx
    limits( -inf , inf )
( -inf , inf )
( -inf , inf )

  end
  begin
    id 11
    name lowerbackDummy
    direction 0 0 0
    length 0
    axis 0 -0 0 xyz
  end
  begin
    id 12
    name lowerback
    direction -0.0218484 0.994884 -0.0986304
    length 4.45607
    axis 0 -0 0 xyz
    dof rx ry rz
    limits( -inf , inf )
( -inf , inf )
( -inf , inf )

  end
  begin
    id 13
    name upperback
    direction -0.00973057 0.999717 -0.0217111
    length 4.47449
    axis 0 -0 0 xyz
    dof rx ry rz
    limits( -inf , inf )
( -inf , inf )
( -inf , inf )

  end
  begin
    id 14
    name thorax
    direction -0.000928171 0.999699 0.0245198
    length 4.50973
    axis 0 -0 0 xyz
    dof rx ry rz
    limits( -inf , inf )
( -inf , inf )
( -inf , inf )

  end
  begin
    id 15
    name rclavicle
    direction -0.9009 0.425937 -0.0834055
    length 7.28587
    axis 0 -0 0 xyz
    dof rx ry rz
    limits( -inf , inf )
( -inf , inf )
( -inf , inf )

  end
  begin
    id 16
    name rhumerus
    direction -1 -2.23604e-007 -1.42637e-007
    length 13.5704
    axis 180 30 90 xyz
    dof rx ry rz
    limits( -inf , inf )
( -inf , inf )
( -inf , inf )

  end
  begin
    id 17
    name rradius
    direction -1 5.68281e-008 -4.4952e-007
    length 8.06782
    axis 180 30 90 xyz
    dof rz ry rx
    limits( -inf , inf )
( -inf , inf )
( -inf , inf )

  end
  begin
    id 18
    name rwrist
    direction -1 1.51393e-007 1.38143e-007
    length 4.03391
    axis -90 -90 0 xyz
    dof rz rx ry
    limits( -inf , inf )
( -inf , inf )
( -inf , inf )

  end
  begin
    id 19
    name rthumb
    direction 0 0 0
    length 0
    axis 0 0 0 xyz
    dof ry rx rz
    limits( -inf , inf )
( -inf , inf )
( -inf , inf )

  end
  begin
    id 20
    name rhand
    direction -1 -3.34077e-007 -5.59631e-007
    length 1.29744
    axis -90 -90 0 xyz
    dof ry rx rz
    limits( -inf , inf )
( -inf , inf )
( -inf , inf )

  end
  begin
    id 21
    name rfingers
    direction 0 0 0
    length 0
    axis 0 0 0 xyz
    dof rz ry rx
    limits( -inf , inf )
( -inf , inf )
( -inf , inf )

  end
  begin
    id 22
    name lclavicle
    direction 0.940017 0.332249 -0.0773232
    length 8.29589
    axis 0 -0 0 xyz
    dof rx ry rz
    limits( -inf , inf )
( -inf , inf )
( -inf , inf )

  end
  begin
    id 23
    name lhumerus
    direction 1 7.41158e-008 -1.44768e-008
    length 12.0042
    axis 180 -30 -90 xyz
    dof rx ry rz
    limits( -inf , inf )
( -inf , inf )
( -inf , inf )

  end
  begin
    id 24
    name lradius
    direction 1 -1.32972e-007 3.10821e-007
    length 8.1902
    axis 180 -30 -90 xyz
    dof rz ry rx
    limits( -inf , inf )
( -inf , inf )
( -inf , inf )

  end
  begin
    id 25
    name lwrist
    direction 1 3.08957e-007 4.01394e-007
    length 4.09509
    axis -90 90 0 xyz
    dof rz rx ry
    limits( -inf , inf )
( -inf , inf )
( -inf , inf )

  end
  begin
    id 26
    name lthumb
    direction 0 0 0
    length 0
    axis 0 0 0 xyz
    dof ry rx rz
    limits( -inf , inf )
( -inf , inf )
( -inf , inf )

  end
  begin
    id 27
    name lhand
    direction 1 -1.64125e-007 -6.99514e-007
    length 1.37229
    axis -90 90 0 xyz
    dof ry rx rz
    limits( -inf , inf )
( -inf , inf )
( -inf , inf )

  end
  begin
    id 28
    name lfingers
    direction 0 0 0
    length 0
    axis 0 0 0 xyz
    dof rz ry rx
    limits( -inf , inf )
( -inf , inf )
( -inf , inf )

  end
  begin
    id 29
    name lowerneck
    direction -0.030798 0.998024 0.0547665
    length 3.93918
    axis 0 -0 0 xyz
    dof rx ry rz
    limits( -inf , inf )
( -inf , inf )
( -inf , inf )

  end
  begin
    id 30
    name upperneck
    direction 0.0531588 0.996611 -0.0627736
    length 3.95491
    axis 0 -0 0 xyz
    dof rx ry rz
    limits( -inf , inf )
( -inf , inf )
( -inf , inf )

  end
  begin
    id 31
    name head
    direction 0 0 0
    length 0
    axis 0 0 0 xyz
    dof rx ry rz
    limits( -inf , inf )
( -inf , inf )
( -inf , inf )

  end
:hierarchy
  begin
    root lfemurDummy rfemurDummy lowerbackDummy
    lfemurDummy lfemur
    lfemur ltibia
    ltibia lfoot
    lfoot ltoes
    rfemurDummy rfemur
    rfemur rtibia
    rtibia rfoot
    rfoot rtoes
    lowerbackDummy lowerback
    lowerback upperback
    upperback thorax
    thorax rclavicle lclavicle lowerneck
    rclavicle rhumerus
    rhumerus rradius
    rradius rwrist
    rwrist rthumb rhand
    rhand rfingers
    lclavicle lhumerus
    lhumerus lradius
    lradius lwrist
    lwrist lthumb lhand
    lhand lfingers
    lowerneck upperneck
    upperneck head
  end

:SAMPLES-PER-SECOND 30
:FULLY-SPECIFIED
:DEGREES
64
root  -7.793688586 36.59910968 8.80184474 49.33099365 -71.38999939 -49.00402832
lowerback  4.203159809 11.06970024 -5.646800041
upperback  1.830410004 14.03709984 -9.296790123
thorax  0.6437119842 6.883600235 -7.079619884
lowerneck  2.558449984 4.657479763 -3.630919933
upperneck  8.97838974 4.56592989 22.9083004
head  1.452970028 2.511369944 7.657939911
lclavicle  0 -9.442270133e-015 7.951389973e-016
lhumerus  -42.77199936 -4.754149914 84.70030212
lradius  1.860380101e-031 -3.001304703e-031 121.7929993
lwrist  -7.062250077e-031 3.531125038e-031 43.16949844
lhand  -1.496451383e-031 -27.76390076 20.11240005
lfingers  90 7.125020027 -90
lthumb  89.89689403 5.08795885 91.16245106
rclavicle  0 -9.442270133e-015 7.951389973e-016
rhumerus  25.58009911 14.21609974 -69.20249939
rradius  1.042898566e-031 3.373604395e-031 72.82180023
rwrist  7.062250077e-031 3.531125038e-031 -44.18270111
rhand  -7.920061211e-032 -33.2840004 9.303460121
rfingers  -90 -7.125020027 -90
rthumb  -92.93752616 -24.25625642 -97.11982154
rfemur  12.0607996 3.676270008 23.32349968
rtibia  -0 0 37.93040085
rfoot  -0 -16.96619987 -26.20849991
rtoes  5.373923086 19.29304026 -105.8922705
lfemur  -45.93149948 8.976690292 8.146789551
ltibia  -0 0 65.19979858
lfoot  -0 -7.827310085 -7.459040165
ltoes  -4.250644065 -19.5611806 -102.515957
65
root  -7.742444737 36.9344456 8.798400248 56.61297607 -73.06199646 -56.94897461
lowerback  4.118609905 11.34840012 -5.856750011
upperback  1.903920054 14.36629963 -9.682459831
thorax  0.8507620096 7.030910015 -7.35916996
lowerneck  1.991039991 5.244729996 -2.861779928
upperneck  9.468270302 5.254179955 22.81909943
head  1.631510019 2.92324996 7.508069992
lclavicle  0 -9.442270133e-015 7.951389973e-016
lhumerus  -44.55260086 -1.944910049 82.61389923
lradius  1.832748767e-031 -3.018257112e-031 121.2669983
lwrist  0 3.531125038e-031 47.91289902
lhand  -1.496451383e-031 -27.76390076 20.11240005
lfingers  90 7.125020027 -90
lthumb  89.89689403 5.08795885 91.16245106
rclavicle  0 -9.442270133e-015 7.951389973e-016
rhumerus  22.63229942 15.38570023 -72.16619873
rradius  9.940737779e-032 3.388312465e-031 73.64920044
rwrist  1.412450015e-030 8.827812596e-031 -44.09889984
rhand  -7.920061211e-032 -33.2840004 9.303460121
rfingers  -90 -7.125020027 -90
rthumb  -92.93752616 -24.25625642 -97.11982154
rfemur  11.71829987 4.079669952 22.52759933
rtibia  -0 0 37.5298996
rfoot  -0 -15.19460011 -25.70919991
rtoes  5.373923086 19.29304026 -105.8922705
lfemur  -42.94279861 9.720769882 9.343239784
ltibia  -0 0 63.67179871
lfoot  -0 -6.827950001 -7.494750023
ltoes  -4.250644065 -19.5611806 -102.515957
66
root  -7.703866733 37.27310962 8.789955349 65.49700928 -74.21399689 -66.22900391
lowerback  3.629460096 11.56159973 -5.978479862
upperback  1.994519949 14.6736002 -10.07619953
thorax  1.322559953 7.168970108 -7.597579956
lowerneck  1.309159994 5.843450069 -2.194190025
upperneck  9.843409538 5.965690136 22.77519989
head  1.795420051 3.345920086 7.397190094
lclavicle  0 -9.442270133e-015 7.951389973e-016
lhumerus  -45.86119843 0.5778340101 80.41339874
lradius  1.782082077e-031 -3.048446737e-031 120.3099976
lwrist  -7.062250077e-031 8.827812596e-031 52.65060043
lhand  -1.496451383e-031 -27.76390076 20.11240005
lfingers  90 7.125020027 -90
lthumb  89.89689403 5.08795885 91.16245106
rclavicle  0 -9.442270133e-015 7.951389973e-016
rhumerus  19.72369957 16.30870056 -75.14800262
rradius  9.505807284e-032 3.400770547e-031 74.38330078
rwrist  7.062250077e-031 3.531125038e-031 -43.95209885
rhand  -7.920061211e-032 -33.2840004 9.303460121
rfingers  -90 -7.125020027 -90
rthumb  -92.93752616 -24.25625642 -97.11982154
rfemur  11.02340031 4.295259953 21.7689991
rtibia  -0 0 37.06389999
rfoot  -0 -14.0994997 -24.80249977
rtoes  5.373923086 19.29304026 -105.8922705
lfemur  -40.19210052 10.35630035 10.67039967
ltibia  -0 0 62.07249832
lfoot  -0 -5.721059799 -7.690430164
ltoes  -4.250644065 -19.5611806 -102.515957
67
root  -7.640333251 37.60044368 8.764800124 75.21398926 -74.94000244 -76.33398438
lowerback  3.313169956 11.74629974 -6.233139992
upperback  2.029589891 14.90799999 -10.41689968
thorax  1.588680029 7.26515007 -7.759419918
lowerneck  0.7975550294 6.471849918 -1.774289966
upperneck  10.11410046 6.734489918 22.87039948
head  1.879500031 3.775549889 7.369130135
lclavicle  0 -9.442270133e-015 7.951389973e-016
lhumerus  -46.86199951 2.806169987 78.11470032
lradius  1.70696199e-031 -3.09113649e-031 118.9079971
lwrist  -3.531125038e-031 7.062250077e-031 57.39899826
lhand  -1.496451383e-031 -27.76390076 20.11240005
lfingers  90 7.125020027 -90
lthumb  89.89689403 5.08795885 91.16245106
rclavicle  0 -9.442270133e-015 7.951389973e-016
rhumerus  16.57999992 17.19020081 -78.05609894
rradius  8.999311398e-032 3.414523097e-031 75.23490143
rwrist  0 3.531125038e-031 -43.73830032
rhand  -7.920061211e-032 -33.2840004 9.303460121
rfingers  -90 -7.125020027 -90
rthumb  -92.93752616 -24.25625642 -97.11982154
rfemur  10.21319962 4.372310162 21.03949928
rtibia  -0 0 36.52600098
rfoot  -0 -12.93799973 -23.70910072
rtoes  5.373923086 19.29304026 -105.8922705
lfemur  -37.40930176 10.56449986 12.04109955
ltibia  -0 0 60.3832016
lfoot  -0 -4.303919792 -7.953179836
ltoes  -4.250644065 -19.5611806 -102.515957
